<?xml version="1.0" encoding="iso-8859-1"?>
<!-- Generator: Adobe Illustrator 19.0.0, SVG Export Plug-In . SVG Version: 6.00 Build 0)  -->
<svg version="1.1" id="Layer_1" xmlns="http://www.w3.org/2000/svg" xmlns:xlink="http://www.w3.org/1999/xlink" x="0px" y="0px"
	 viewBox="0 0 512 512" style="enable-background:new 0 0 512 512;" xml:space="preserve">
<rect x="181" y="76" style="fill:#5C5F66;" width="150" height="120"/>
<rect x="256" y="76" style="fill:#53565C;" width="75" height="120"/>
<path style="fill:#F23051;" d="M437,436H75c-4.614,0-8.979-2.124-11.821-5.771c-2.842-3.633-3.853-8.379-2.725-12.861
	l48.633-194.546c8.35-33.457,39.276-56.821,73.759-56.821h146.309c34.482,0,65.409,23.364,73.759,56.821l48.633,194.546
	c1.128,4.482,0.117,9.229-2.725,12.861C445.979,433.876,441.614,436,437,436z"/>
<path style="fill:#D92C48;" d="M402.913,222.821C394.563,189.364,363.637,166,329.154,166H256v270h181
	c4.614,0,8.979-2.124,11.821-5.771c2.842-3.633,3.853-8.379,2.725-12.861L402.913,222.821z"/>
<path style="fill:#F23051;" d="M497,166h-64.453c-19.805,0-37.031-11.748-42.847-29.238C383.577,118.363,365.409,106,346,106H166
	c-19.409,0-37.577,12.363-43.7,30.776C116.484,154.252,99.258,166,79.453,166H15c-8.291,0-15-6.709-15-15v-30
	C0,63.109,47.109,16,105,16h302c57.891,0,105,47.109,105,105v30C512,159.291,505.291,166,497,166z"/>
<path style="fill:#D92C48;" d="M407,16H256v90h90c19.409,0,37.577,12.363,43.7,30.762c5.815,17.49,23.042,29.238,42.847,29.238H497
	c8.291,0,15-6.709,15-15v-30C512,63.109,464.891,16,407,16z"/>
<path style="fill:#C4CAD9;" d="M256,376c-41.353,0-75-33.647-75-75s33.647-75,75-75s75,33.647,75,75S297.353,376,256,376z"/>
<path style="fill:#B8BFCC;" d="M331,301c0-41.353-33.647-75-75-75v150C297.353,376,331,342.353,331,301z"/>
<path style="fill:#E6EEFF;" d="M256,346L256,346c-24.853,0-45-20.147-45-45l0,0c0-24.853,20.147-45,45-45l0,0
	c24.853,0,45,20.147,45,45l0,0C301,325.853,280.853,346,256,346z"/>
<path style="fill:#DAE2F2;" d="M301,301c0-24.853-20.147-45-45-45v90C280.853,346,301,325.853,301,301z"/>
<path style="fill:#5C5F66;" d="M437,496H75c-24.814,0-45-20.186-45-45s20.186-45,45-45h362c24.814,0,45,20.186,45,45
	S461.814,496,437,496z"/>
<path style="fill:#53565C;" d="M437,406H256v90h181c24.814,0,45-20.186,45-45S461.814,406,437,406z"/>
<g>
</g>
<g>
</g>
<g>
</g>
<g>
</g>
<g>
</g>
<g>
</g>
<g>
</g>
<g>
</g>
<g>
</g>
<g>
</g>
<g>
</g>
<g>
</g>
<g>
</g>
<g>
</g>
<g>
</g>
</svg>
